<svg xmlns="http://www.w3.org/2000/svg" width="14.9" height="19.533"><path d="M12.662 2.817h-2.9a2.317 2.317 0 10-4.633 0h-2.9A1.738 1.738 0 00.5 4.554V17.3a1.738 1.738 0 001.737 1.737h10.425A1.738 1.738 0 0014.4 17.3V4.554a1.738 1.738 0 00-1.738-1.737zM3.975 15.848a.869.869 0 11.869-.869.867.867 0 01-.869.869zm0-3.475a.869.869 0 11.869-.873.867.867 0 01-.869.873zm0-3.475a.869.869 0 11.869-.869.867.867 0 01-.869.871zm3.475-6.95a.869.869 0 11-.869.869.867.867 0 01.869-.869zm4.633 13.321a.29.29 0 01-.29.29H6.581a.29.29 0 01-.29-.29v-.579a.29.29 0 01.29-.29h5.212a.29.29 0 01.29.29zm0-3.475a.29.29 0 01-.29.29H6.581a.29.29 0 01-.29-.29v-.579a.29.29 0 01.29-.29h5.212a.29.29 0 01.29.29zm0-3.475a.29.29 0 01-.29.29H6.581a.29.29 0 01-.29-.29V7.74a.29.29 0 01.29-.29h5.212a.29.29 0 01.29.29z" fill="none" stroke="#b1c100"/></svg>