<svg xmlns="http://www.w3.org/2000/svg" width="28.728" height="21.796"><path d="M27.7 7.367a.326.326 0 01.525.255V18.7a2.6 2.6 0 01-2.6 2.6H3.1a2.6 2.6 0 01-2.6-2.6V7.627a.324.324 0 01.525-.255c1.213.942 2.821 2.139 8.345 6.152 1.143.834 3.071 2.589 4.993 2.578 1.933.016 3.9-1.776 5-2.578 5.523-4.013 7.126-5.215 8.337-6.157zm-13.338 7c1.256.022 3.065-1.581 3.975-2.242 7.186-5.215 7.733-5.67 9.391-6.97a1.3 1.3 0 00.5-1.024V3.1a2.6 2.6 0 00-2.6-2.6H3.1A2.6 2.6 0 00.5 3.1v1.029A1.3 1.3 0 001 5.153c1.657 1.294 2.2 1.755 9.391 6.97.91.661 2.719 2.264 3.975 2.242z" fill="#333" stroke="#b1c100"/></svg>