<svg xmlns="http://www.w3.org/2000/svg" width="14.203" height="10.652" viewBox="0 0 14.203 10.652"><defs><style>.a{fill:#fff;}</style></defs><path class="a" d="M13.934,67.517a.167.167,0,0,1,.269.13v5.673a1.332,1.332,0,0,1-1.332,1.332H1.332A1.332,1.332,0,0,1,0,73.321v-5.67a.166.166,0,0,1,.269-.13c.621.483,1.445,1.1,4.275,3.151A4.963,4.963,0,0,0,7.1,71.992a4.965,4.965,0,0,0,2.56-1.32C12.491,68.616,13.312,68,13.934,67.517ZM7.1,71.1c.644.011,1.57-.81,2.036-1.148,3.681-2.671,3.961-2.9,4.81-3.57a.664.664,0,0,0,.255-.524v-.527A1.332,1.332,0,0,0,12.871,64H1.332A1.332,1.332,0,0,0,0,65.332v.527a.668.668,0,0,0,.255.524c.849.663,1.129.9,4.81,3.57.466.338,1.393,1.16,2.036,1.148Z" transform="translate(0 -64)"/></svg>