<svg xmlns="http://www.w3.org/2000/svg" width="18.539" height="17.82"><path d="M17.645 8.102a1.256 1.256 0 00-.7-2.142l-4.24-.616a.554.554 0 01-.417-.3L10.396 1.2a1.256 1.256 0 00-2.252 0l-1.9 3.842a.554.554 0 01-.418.3l-4.24.616a1.256 1.256 0 00-.7 2.142l3.067 2.99a.555.555 0 01.16.491l-.724 4.222a1.229 1.229 0 00.274 1.018 1.269 1.269 0 001.548.305l3.805-1.991a.568.568 0 01.516 0l3.784 1.994a1.243 1.243 0 00.584.146 1.259 1.259 0 00.963-.452 1.229 1.229 0 00.274-1.018l-.721-4.222a.555.555 0 01.16-.491z" fill="none" stroke="#b1c100"/></svg>