<svg xmlns="http://www.w3.org/2000/svg" width="14.9" height="19.533" viewBox="0 0 14.9 19.533"><defs><style>.a{fill:none;stroke:#b1c100;}</style></defs><path class="a" d="M12.162,2.317h-2.9a2.317,2.317,0,1,0-4.633,0h-2.9A1.738,1.738,0,0,0,0,4.054V16.8a1.738,1.738,0,0,0,1.737,1.737H12.162A1.738,1.738,0,0,0,13.9,16.8V4.054A1.738,1.738,0,0,0,12.162,2.317ZM3.475,15.348a.869.869,0,1,1,.869-.869A.867.867,0,0,1,3.475,15.348Zm0-3.475A.869.869,0,1,1,4.344,11,.867.867,0,0,1,3.475,11.873Zm0-3.475a.869.869,0,1,1,.869-.869A.867.867,0,0,1,3.475,8.4ZM6.95,1.448a.869.869,0,1,1-.869.869A.867.867,0,0,1,6.95,1.448Zm4.633,13.321a.29.29,0,0,1-.29.29H6.081a.29.29,0,0,1-.29-.29v-.579a.29.29,0,0,1,.29-.29h5.212a.29.29,0,0,1,.29.29Zm0-3.475a.29.29,0,0,1-.29.29H6.081a.29.29,0,0,1-.29-.29v-.579a.29.29,0,0,1,.29-.29h5.212a.29.29,0,0,1,.29.29Zm0-3.475a.29.29,0,0,1-.29.29H6.081a.29.29,0,0,1-.29-.29V7.24a.29.29,0,0,1,.29-.29h5.212a.29.29,0,0,1,.29.29Z" transform="translate(0.5 0.5)"/></svg>