<svg xmlns="http://www.w3.org/2000/svg" width="28.728" height="21.796" viewBox="0 0 28.728 21.796"><defs><style>.a{fill:#333;stroke:#b1c100;}</style></defs><path class="a" d="M27.2,70.867a.326.326,0,0,1,.525.255V82.2a2.6,2.6,0,0,1-2.6,2.6H2.6A2.6,2.6,0,0,1,0,82.2V71.127a.324.324,0,0,1,.525-.255c1.213.942,2.821,2.139,8.345,6.152,1.143.834,3.071,2.589,4.993,2.578,1.933.016,3.9-1.776,5-2.578C24.386,73.011,25.989,71.809,27.2,70.867Zm-13.338,7c1.256.022,3.065-1.581,3.975-2.242,7.186-5.215,7.733-5.67,9.391-6.97a1.3,1.3,0,0,0,.5-1.024V66.6a2.6,2.6,0,0,0-2.6-2.6H2.6A2.6,2.6,0,0,0,0,66.6v1.029a1.3,1.3,0,0,0,.5,1.024c1.657,1.294,2.2,1.755,9.391,6.97.91.661,2.719,2.264,3.975,2.242Z" transform="translate(0.5 -63.5)"/></svg>