<svg xmlns="http://www.w3.org/2000/svg" width="20.846" height="27.462"><path d="M17.865 3.808h-4.134a3.308 3.308 0 10-6.615 0H2.981A2.481 2.481 0 00.5 6.288v18.193a2.481 2.481 0 002.481 2.481h14.884a2.481 2.481 0 002.481-2.481V6.288a2.481 2.481 0 00-2.481-2.48zM5.462 22.414a1.24 1.24 0 111.24-1.24 1.237 1.237 0 01-1.24 1.24zm0-4.962a1.24 1.24 0 111.24-1.24 1.237 1.237 0 01-1.24 1.24zm0-4.962A1.24 1.24 0 116.7 11.25a1.237 1.237 0 01-1.238 1.24zm4.961-9.923a1.24 1.24 0 11-1.24 1.24 1.237 1.237 0 011.24-1.24zm6.615 19.019a.415.415 0 01-.413.413H9.183a.415.415 0 01-.413-.413v-.826a.415.415 0 01.413-.413h7.442a.415.415 0 01.413.413zm0-4.962a.415.415 0 01-.413.413H9.183a.415.415 0 01-.413-.413V15.8a.415.415 0 01.413-.413h7.442a.415.415 0 01.413.413zm0-4.962a.415.415 0 01-.413.413H9.183a.415.415 0 01-.413-.413v-.827a.415.415 0 01.413-.413h7.442a.415.415 0 01.413.413z" fill="none" stroke="#b1c100"/></svg>