<svg xmlns="http://www.w3.org/2000/svg" width="20.846" height="27.462" viewBox="0 0 20.846 27.462"><defs><style>.a{fill:none;stroke:#b1c100;}</style></defs><path class="a" d="M17.365,3.308H13.231a3.308,3.308,0,1,0-6.615,0H2.481A2.481,2.481,0,0,0,0,5.788V23.981a2.481,2.481,0,0,0,2.481,2.481H17.365a2.481,2.481,0,0,0,2.481-2.481V5.788A2.481,2.481,0,0,0,17.365,3.308ZM4.962,21.914a1.24,1.24,0,1,1,1.24-1.24A1.237,1.237,0,0,1,4.962,21.914Zm0-4.962a1.24,1.24,0,1,1,1.24-1.24A1.237,1.237,0,0,1,4.962,16.952Zm0-4.962A1.24,1.24,0,1,1,6.2,10.75,1.237,1.237,0,0,1,4.962,11.99ZM9.923,2.067a1.24,1.24,0,1,1-1.24,1.24A1.237,1.237,0,0,1,9.923,2.067Zm6.615,19.019a.415.415,0,0,1-.413.413H8.683a.415.415,0,0,1-.413-.413V20.26a.415.415,0,0,1,.413-.413h7.442a.415.415,0,0,1,.413.413Zm0-4.962a.415.415,0,0,1-.413.413H8.683a.415.415,0,0,1-.413-.413V15.3a.415.415,0,0,1,.413-.413h7.442a.415.415,0,0,1,.413.413Zm0-4.962a.415.415,0,0,1-.413.413H8.683a.415.415,0,0,1-.413-.413v-.827a.415.415,0,0,1,.413-.413h7.442a.415.415,0,0,1,.413.413Z" transform="translate(0.5 0.5)"/></svg>