<svg data-name="Layer 1" xmlns="http://www.w3.org/2000/svg" width="660.132" height="70.072" viewBox="0 0 495.09 52.56"><path d="M33.41 26.14q0 6.84-.21 8.64a18.15 18.15 0 01-2.6 8.06q-5.4 8.36-15.62 8.35H.36c-.24 0-.36-.09-.36-.29V1.37a.32.32 0 01.36-.36h15.12q10.38 0 15.27 8.42a17.09 17.09 0 012.23 5.87 86 86 0 01.43 10.84zm-7.63.14a73.07 73.07 0 00-.39-9.4 10.23 10.23 0 00-1.9-4.5 10.44 10.44 0 00-8.9-4.24H7.64v35.92h7.17q6 0 9-4.46a9.66 9.66 0 001.62-4.1 82.92 82.92 0 00.35-9.22zm48.6 24.55a.32.32 0 01-.36.36h-29.3c-.24 0-.36-.09-.36-.29V1.37c0-.24.09-.36.28-.36h29.38a.32.32 0 01.36.36v6.48a.32.32 0 01-.36.36h-22v14.33h18.4c.24 0 .36.09.36.28v6.56a.32.32 0 01-.36.36H51.99v14.32h22c.24 0 .36.1.36.29zm16.13-12.89a8.55 8.55 0 003.53 5.12 10.49 10.49 0 005.9 1.87 10.21 10.21 0 006.34-2 6.51 6.51 0 003.09-5.54q0-6.12-9.29-7.49Q82.44 27.38 82.44 15a13.45 13.45 0 015.55-11A18.62 18.62 0 0199.87-.1 17.53 17.53 0 01111.28 4a17.07 17.07 0 016.16 10.44c0 .29-.08.44-.36.44h-7.49a.6.6 0 01-.36-.22q-2.31-6.92-9.58-6.91a10.19 10.19 0 00-6.33 2 6.35 6.35 0 00-2.88 5.33q0 6.12 9.28 7.49 8.07 1.15 12.17 4 5.47 3.75 5.47 10.94a13.44 13.44 0 01-5.54 10.95 18.63 18.63 0 01-11.88 4 18.31 18.31 0 01-10-2.88 15.56 15.56 0 01-6.69-7.92 14.3 14.3 0 01-.94-3.74.32.32 0 01.36-.36h7.42c.13.14.23.19.42.38zm45.71 12.89a.32.32 0 01-.37.36h-6.9c-.24 0-.36-.09-.36-.29V1.37c0-.24.09-.36.29-.36h7a.32.32 0 01.37.36zm46.8-16.2a17.17 17.17 0 01-5.22 12.67 17.35 17.35 0 01-12.71 5.19 17.65 17.65 0 01-15.7-9.07 15.72 15.72 0 01-1.72-5.19 92.54 92.54 0 01-.51-11.88 95.28 95.28 0 01.51-12 16.43 16.43 0 011.72-5.26 17 17 0 015.76-6.19 18 18 0 019.94-2.88 17.21 17.21 0 0111.66 4.25 18 18 0 015.84 10.22c.09.29 0 .43-.29.43h-7.35a.57.57 0 01-.57-.5 9 9 0 00-2.45-4 9.34 9.34 0 00-6.91-2.74 9.1 9.1 0 00-7.63 3.67 11.11 11.11 0 00-2.09 4.54 67.12 67.12 0 00-.65 10.44 53.11 53.11 0 00.57 10.37 10.62 10.62 0 002.16 4.61 9.55 9.55 0 007.7 3.67 9.81 9.81 0 007.34-3 10.55 10.55 0 003-7.7v-4.32h-9.87c-.24 0-.36-.1-.36-.29v-6.48a.32.32 0 01.36-.36h17.14c.24 0 .36.1.36.29zm45.79 16.2a.32.32 0 01-.36.36h-6.6a.78.78 0 01-.37-.14l-19.53-34.13v33.91c0 .24-.09.36-.29.36h-7c-.25 0-.37-.09-.37-.29V1.37a.32.32 0 01.36-.36h6.63c.19.05.28.09.28.14l19.66 34.13V1.37a.32.32 0 01.36-.36h6.91a.32.32 0 01.36.36zm41.47 0a.32.32 0 01-.36.36h-29.3c-.24 0-.36-.09-.36-.29V1.37c0-.24.09-.36.29-.36h29.37a.32.32 0 01.36.36v6.48a.32.32 0 01-.36.36h-22v14.33h18.43c.24 0 .36.09.36.28v6.56a.32.32 0 01-.36.36H247.9v14.32h22c.24 0 .36.1.36.29zm46.44-.14c.19.33.1.5-.29.5h-7.9a.93.93 0 01-.35-.21L297.92 29.7h-8.91v21.09a.32.32 0 01-.36.36h-6.91c-.24 0-.36-.09-.36-.29V1.37c0-.24.1-.36.29-.36h19.22q6.84 0 10.44 3a13.63 13.63 0 014.9 11q.07 10.65-10.34 13.82zm-8.35-35.35q0-7.2-8.18-7.2h-11.18v14.47h10.83a9.07 9.07 0 006.32-2 6.75 6.75 0 002.22-5.27zm51.77 10.8q0 6.84-.22 8.64a18.14 18.14 0 01-2.59 8.06 17.59 17.59 0 01-15.62 8.35H327.1c-.24 0-.36-.09-.36-.29V1.37a.32.32 0 01.36-.36h15.12q10.37 0 15.26 8.42a17.13 17.13 0 012.24 5.87 88 88 0 01.43 10.84zm-7.63.14a72.49 72.49 0 00-.4-9.4 10.11 10.11 0 00-1.9-4.5 10.43 10.43 0 00-8.89-4.24h-7v35.92h7.17q6 0 9-4.46a9.51 9.51 0 001.61-4.1 79.59 79.59 0 00.42-9.22zm53.13 0a97.85 97.85 0 01-.5 12 15.57 15.57 0 01-1.8 5.19 17.89 17.89 0 01-15.7 9.07 17.65 17.65 0 01-15.69-9.07 14.5 14.5 0 01-1.66-5.19 94 94 0 01-.5-12 94.74 94.74 0 01.5-12 15.74 15.74 0 011.73-5.19 18.19 18.19 0 0125.56-6.19 17 17 0 015.76 6.19 16.76 16.76 0 011.73 5.12 87.22 87.22 0 01.58 12.07zm-7.63 0c0-4.13 0-6.74-.14-7.85a13.91 13.91 0 00-2.44-7.2 10 10 0 00-15.43.07 14 14 0 00-2.44 7.2c-.1 1.11-.14 3.7-.14 7.78s0 6.67.14 7.78a13.53 13.53 0 002.51 7.2 9.38 9.38 0 007.61 3.6 9.59 9.59 0 007.75-3.68c1.29-1.58 2.1-4 2.44-7.12q.15-1.66.15-7.78zm52.78 11.95a18.17 18.17 0 01-4.76 9.36 17.34 17.34 0 01-12.81 5 18 18 0 01-9.94-2.88 17.75 17.75 0 01-5.76-6.19 15.89 15.89 0 01-1.73-5.19 96.94 96.94 0 01-.5-12 97.85 97.85 0 01.5-12 16 16 0 011.73-5.19 17.75 17.75 0 015.76-6.19 18 18 0 019.94-2.88 17.23 17.23 0 0113.1 5.33 19.35 19.35 0 014.47 9.14c.09.29 0 .44-.36.44h-7.13c-.39 0-.6-.15-.65-.44a7.92 7.92 0 00-1.8-3.6 10.19 10.19 0 00-15.84 1.16 10.9 10.9 0 00-1.66 4.46 78.29 78.29 0 00-.43 9.79q0 6.48.15 7.78a13.59 13.59 0 002.44 7.2 9.37 9.37 0 007.78 3.67 9.25 9.25 0 006.48-2.59 9.69 9.69 0 002.81-4.11.67.67 0 01.72-.57h7.13c.29-.03.41.17.37.5zM494.93 1.7l-12.24 24.62L495 50.7c.2.33.08.5-.36.5h-7.84a.9.9 0 01-.36-.21l-10.3-21.29h-9v21.09a.32.32 0 01-.36.36h-6.91c-.24 0-.36-.09-.36-.29V1.37c0-.24.09-.36.29-.36h7a.32.32 0 01.36.36v21.17h9.14l10.23-21.39a.29.29 0 01.29-.14h7.92c.31 0 .38.21.19.69z" fill="#1d1d1b"/></svg>