<svg xmlns="http://www.w3.org/2000/svg" width="14.203" height="10.652"><path d="M13.934 3.517a.167.167 0 01.269.13V9.32a1.332 1.332 0 01-1.332 1.332H1.332A1.332 1.332 0 010 9.321v-5.67a.166.166 0 01.269-.13c.621.483 1.445 1.1 4.275 3.151A4.963 4.963 0 007.1 7.992a4.965 4.965 0 002.56-1.32C12.491 4.616 13.312 4 13.934 3.517zM7.1 7.1c.644.011 1.57-.81 2.036-1.148 3.681-2.671 3.961-2.9 4.81-3.57a.664.664 0 00.255-.524v-.527A1.332 1.332 0 0012.871 0H1.332A1.332 1.332 0 000 1.332v.527a.668.668 0 00.255.524c.849.663 1.129.9 4.81 3.57.466.338 1.393 1.16 2.036 1.148z" fill="#fff"/></svg>