<svg xmlns="http://www.w3.org/2000/svg" width="18.539" height="17.82" viewBox="0 0 18.539 17.82"><defs><style>.a{fill:none;stroke:#b1c100;}</style></defs><path class="a" d="M17.129,8.649a1.256,1.256,0,0,0-.7-2.142l-4.24-.616a.554.554,0,0,1-.417-.3L9.88,1.747a1.256,1.256,0,0,0-2.252,0l-1.9,3.842a.554.554,0,0,1-.418.3l-4.24.616a1.256,1.256,0,0,0-.7,2.142l3.067,2.99a.555.555,0,0,1,.16.491l-.724,4.222a1.229,1.229,0,0,0,.274,1.018,1.269,1.269,0,0,0,1.548.305L8.5,15.682a.568.568,0,0,1,.516,0L12.8,17.676a1.243,1.243,0,0,0,.584.146,1.259,1.259,0,0,0,.963-.452,1.229,1.229,0,0,0,.274-1.018L13.9,12.13a.555.555,0,0,1,.16-.491Z" transform="translate(0.516 -0.547)"/></svg>