<svg xmlns="http://www.w3.org/2000/svg" width="25.444" height="25.444" viewBox="0 0 25.444 25.444"><defs><style>.a{fill:none;stroke:#b1c100;}</style></defs><path class="a" d="M23.73,17.267l-5.343-2.29a1.145,1.145,0,0,0-1.336.329L14.684,18.2A17.684,17.684,0,0,1,6.231,9.744L9.122,7.378a1.142,1.142,0,0,0,.329-1.336L7.161.7A1.153,1.153,0,0,0,5.849.035L.887,1.18A1.145,1.145,0,0,0,0,2.3,22.135,22.135,0,0,0,22.137,24.433a1.145,1.145,0,0,0,1.116-.887L24.4,18.584a1.159,1.159,0,0,0-.668-1.317Z" transform="translate(0.5 0.511)"/></svg>